<?xml version="1.0" encoding="utf-8"?>
<!-- Generator: Adobe Illustrator 25.0.0, SVG Export Plug-In . SVG Version: 6.00 Build 0)  -->
<svg version="1.1" id="レイヤー_1" xmlns="http://www.w3.org/2000/svg" xmlns:xlink="http://www.w3.org/1999/xlink" x="0px"
	 y="0px" viewBox="0 0 768 86" style="enable-background:new 0 0 768 86;" xml:space="preserve">
<style type="text/css">
	.st0{fill:none;}
	.st1{fill:#ED1C24;}
	.st2{fill:#0000FF;}
</style>
<rect x="-79.74" y="-42.61" class="st0" width="2.61" height="0"/>
<rect x="36.78" y="-49.57" class="st0" width="582.22" height="6.96"/>
<rect x="507.47" y="-62.66" class="st0" width="21.42" height="0"/>
<rect x="380.26" y="-267.84" class="st0" width="2.86" height="0"/>
<g>
	<path d="M177.48,11.25h6.33v58.5h24.7v7.1h-31.03V11.25z"/>
	<path d="M221.71,11.25h30.96v7.1h-24.55v20.5h20.74v7.1h-20.74v23.8h25.31v7.1h-31.72V11.25z"/>
	<path d="M277.97,11.25h7.32l16.85,65.6h-6.86l-8.62-36.6c-1.75-7.3-3.43-14.5-4.96-22.1h-0.31c-1.6,7.6-3.2,14.8-4.96,22.1
		l-8.77,36.6h-6.56L277.97,11.25z M270.05,50.16H293v6.8h-22.95V50.16z"/>
	<path d="M309.62,68.36l3.81-5.8c3.81,4.9,9,8.1,14.64,8.1c6.86,0,10.83-4.3,10.83-10.3c0-7-3.89-9-8.92-11.8l-7.24-4.2
		c-4.96-2.6-10.75-7.2-10.75-16.9c0-10,6.86-17.4,16.39-17.4c6.25,0,11.74,3.3,15.4,8.1l-3.35,5.4c-3.28-3.8-7.09-6.1-12.28-6.1
		c-5.8,0-9.68,3.6-9.68,9.5c0,6.3,4.65,8.6,8.92,10.8l7.01,4.1c6.18,3.2,11.06,7.8,11.06,17.5c0,10.4-6.71,18.7-17.69,18.7
		C320.44,78.06,314.12,74.26,309.62,68.36z"/>
	<path d="M357.5,69.76h12.43v-51.4H357.5v-7.1h31.26v7.1h-12.43v51.4h12.43v7.1H357.5V69.76z"/>
	<path d="M402.25,11.25h7.02l16.01,41.2l4.8,13.6h0.15c-0.23-6.5-0.84-13.9-0.84-20.8v-34h6.1v65.6h-7.01l-16.01-41.2l-4.8-13.6
		h-0.15c0.23,6.7,0.84,13.7,0.84,20.5v34.3h-6.1V11.25z"/>
	<path d="M445.79,44.06c0-21.2,9.22-34,22.19-34c6.63,0,10.98,4.1,13.8,8l-3.66,5.3c-2.36-3.3-5.34-5.9-10.14-5.9
		c-9.38,0-15.48,10.1-15.48,26.4c0,16.5,5.57,26.8,15.33,26.8c3.51,0,6.79-1.4,8.62-3.8v-17.1h-9.91v-6.9h15.86v27.6
		c-3.13,4.2-8.46,7.6-14.94,7.6C454.86,78.06,445.79,65.46,445.79,44.06z"/>
	<path d="M552.46,11.25h7.32l16.85,65.6h-6.86l-8.62-36.6c-1.75-7.3-3.43-14.5-4.96-22.1h-0.31c-1.6,7.6-3.2,14.8-4.96,22.1
		l-8.77,36.6h-6.56L552.46,11.25z M544.53,50.16h22.95v6.8h-22.95V50.16z"/>
	<path d="M583.95,44.06c0-21.1,9.38-34,22.42-34c6.02,0,10.75,3.8,13.72,8l-3.66,5.3c-2.59-3.6-5.87-5.9-10.06-5.9
		c-9.53,0-15.78,10.1-15.78,26.4c0,16.5,6.25,26.8,15.78,26.8c4.57,0,8.08-2.6,11.21-7.2l3.66,5.1c-3.89,6-8.85,9.5-15.48,9.5
		C593.4,78.06,583.95,65.46,583.95,44.06z"/>
	<path d="M629.7,44.06c0-21.1,9.38-34,22.42-34c6.02,0,10.75,3.8,13.72,8l-3.66,5.3c-2.59-3.6-5.87-5.9-10.06-5.9
		c-9.53,0-15.78,10.1-15.78,26.4c0,16.5,6.25,26.8,15.78,26.8c4.57,0,8.08-2.6,11.21-7.2l3.66,5.1c-3.89,6-8.85,9.5-15.48,9.5
		C639.15,78.06,629.7,65.46,629.7,44.06z"/>
	<path d="M679.18,11.25h30.96v7.1h-24.55v20.5h20.74v7.1h-20.74v23.8h25.31v7.1h-31.72V11.25z"/>
	<path d="M726.45,11.25h6.33v58.5h24.7v7.1h-31.03V11.25z"/>
</g>
<g>
	<g>
	</g>
</g>
<path d="M-184,23"/>
<path class="st0" d="M-214,24c10.76-8.88,22.42-17.93,35-27c16.23-11.7,32.01-21.98,47-31c0.71,3.67,1.98,12.47-2,21
	c-26.2,56.12-241.42,17.57-241,3c0.12-4.03,16.86-9.31,96-14"/>
<path class="st0" d="M-86,36"/>
<path class="st0" d="M-145-202c-9.67,7-19.33,14-29,21"/>
<path class="st0" d="M-88,60c-73.19,15.29-105.03,27.84-118.52,37.58c-0.84,0.61-2.69,1.98-4.48,1.42c-12.92-4.03,5.33-99.49,26-192
	"/>
<path d="M37,35"/>
<path class="st1" d="M138,28.45c-43.02-12.33-75.59-14.22-80.21-3.17c-6.44,15.43,28.05,55.3,40.1,49.69
	c6.9-3.22,6.14-21.42,4.01-38.06"/>
<path class="st2" d="M123,21c-14.23,23.13-13.67,44.91-4,52c6.61,4.84,18.77,3.76,26-3c10.4-9.72,8.23-28.98,0-34
	c-10.39-6.34-33.28,8.28-33,21c0.11,4.84,3.6,10.85,9,12c5.4,1.15,11.92-2.74,15-10"/>
</svg>
